<svg xmlns="http://www.w3.org/2000/svg" width="102.464" height="28.631" viewBox="0 0 102.464 28.631">
  <g id="blk_logo" data-name="blk logo" transform="translate(-18.732 -13.394)">
    <rect id="Rectangle_1" data-name="Rectangle 1" width="5.769" height="27.732" transform="translate(82.762 13.6)" fill="#fff"/>
    <path id="Path_1" data-name="Path 1" d="M186.122,13.859H191.9V28.637l6.763-7.4h6.91l-7.749,8.01,8.019,12.346h-6.617l-5.317-8.321L191.9,35.4v6.191h-5.774Z" transform="translate(-93.104 -0.259)" fill="#fff"/>
    <path id="Path_2" data-name="Path 2" d="M79.853,13.859h.368l.852,1.331.843-1.331h.359v2.392h-.311V14.44l-.888,1.274h-.044L80.19,14.44v1.811h-.342Zm-1.638.328h-.763v-.328h1.877v.328h-.768v2.064h-.346Z" transform="translate(-32.661 -0.259)" fill="#fff"/>
    <path id="Path_3" data-name="Path 3" d="M122.226,31.451v-.075c0-3.377-2.277-5.623-4.975-5.623s-4.935,2.246-4.935,5.623v.075c0,3.377,2.219,5.623,4.935,5.623s4.975-2.219,4.975-5.623m-9.834,7.482V41.6h-5.769V13.859h5.769v10.3a7.482,7.482,0,0,1,6.346-3.3c4.744,0,9.266,3.719,9.266,10.522v.075c0,6.8-4.438,10.518-9.266,10.518a7.824,7.824,0,0,1-6.346-3.036" transform="translate(-48.885 -0.259)" fill="#fff"/>
    <path id="Path_4" data-name="Path 4" d="M240.682,63.2a3.2,3.2,0,1,0-.055,4.518l.028-.027a3.177,3.177,0,0,0,.027-4.491" transform="translate(-120.402 -27.168)" fill="#fff"/>
    <path id="Path_5" data-name="Path 5" d="M44.032,63.452a3.439,3.439,0,1,0,4.882-.035,3.439,3.439,0,0,0-4.882.035" transform="translate(-13.527 -27.272)" fill="#fff"/>
    <path id="Path_6" data-name="Path 6" d="M43.717,25.075h0A7.451,7.451,0,0,1,36.5,17.837a3.466,3.466,0,0,0-3.484-3.368h-.133a3.457,3.457,0,0,0-3.479,3.368,7.45,7.45,0,0,1-7.234,7.238h0a3.44,3.44,0,1,0,3.484,3.519,5.906,5.906,0,0,1,.2-1.611,7.056,7.056,0,0,1,7.1-5.645,7.047,7.047,0,0,1,7.1,5.645,5.962,5.962,0,0,1,.2,1.611,3.484,3.484,0,1,0,3.479-3.519" transform="translate(0 -0.598)" fill="#fff"/>
    <path id="Path_7" data-name="Path 7" d="M238.847,15.664c.355,0,.6-.16.6-.444h0c0-.262-.217-.444-.581-.444h-.741v.888Zm-1.105-1.238h1.132a1.032,1.032,0,0,1,.746.262.67.67,0,0,1,.2.493h0a.746.746,0,0,1-.643.777l.781,1h-.444L238.789,16h-.648v.959h-.4Zm3.209,1.331h0a2.246,2.246,0,1,0-4.487-.2q0,.1,0,.2h0a2.246,2.246,0,1,0,4.487.2c0-.066,0-.133,0-.2m-4.709,0h0a2.467,2.467,0,0,1,4.93,0h0a2.467,2.467,0,0,1-4.93,0" transform="translate(-120.982 0)" fill="#fff"/>
  </g>
</svg>
